<svg width="172" height="202" viewBox="0 0 172 202" fill="none" xmlns="http://www.w3.org/2000/svg">
<path d="M43.2083 181.333C58.974 169.51 60.8281 161.677 51.7969 143.547C45.599 131.094 36.8229 120.266 29.2969 108.646C21.0052 95.8542 13.4427 82.7552 17.5625 66.2656C12.9531 73.2396 7.88022 79.9531 3.83856 87.2448C-1.85415 97.5313 -0.296858 108.156 4.46877 118.385C11.3386 133.125 21.7656 145.656 30.3125 159.359C34.5417 166.13 39.25 172.88 39.6042 181.063C39.6302 181.745 39.5 183.797 39.5 183.797L43.2083 181.333Z" fill="white"/>
<mask id="mask0_38_95" style="mask-type:luminance" maskUnits="userSpaceOnUse" x="54" y="0" width="60" height="119">
<path d="M54.6666 0.276062H113.333V118.333H54.6666V0.276062Z" fill="white"/>
</mask>
<g mask="url(#mask0_38_95)">
<path d="M98.3385 115.339C114.109 103.516 115.964 95.6823 106.932 77.5521C100.729 65.099 91.9583 54.2709 84.4271 42.6511C76.1406 29.8594 68.5729 16.7605 72.6979 0.270874C68.0833 7.24483 63.0104 13.9584 58.9739 21.25C53.276 31.5365 54.8385 42.1563 59.6041 52.3907C66.4687 67.1302 76.8958 79.6615 85.4479 93.3646C89.6771 100.135 94.3854 106.885 94.7396 115.068C94.7656 115.75 94.6302 117.802 94.6302 117.802L98.3385 115.339Z" fill="white"/>
</g>
<path d="M43.0885 190.839C62.5208 205.698 72.5 205.276 91.125 188.396C103.917 176.792 113.906 162.667 125.255 149.766C137.75 135.563 150.849 122.12 171.937 121.5C162.057 118.333 152.323 114.531 142.26 112.161C128.052 108.813 115.885 114.25 105.266 123.385C89.9635 136.547 78.5052 153.219 65.0104 168.042C58.3385 175.375 51.8645 183.271 42.2083 186.443C41.401 186.708 38.901 187.234 38.901 187.234L43.0885 190.839Z" fill="white"/>
<path d="M71.7187 151.922C87.4895 140.099 89.3385 132.266 80.3125 114.135C74.1093 101.677 65.3385 90.849 57.8072 79.2292C49.5208 66.4375 41.9531 53.3438 46.0781 36.8542C41.4635 43.8281 36.3906 50.5417 32.3541 57.8334C26.6562 68.1198 28.2187 78.7396 32.9843 88.974C39.8489 103.714 50.276 116.245 58.8281 129.943C63.0572 136.719 67.7656 143.464 68.1145 151.651C68.1458 152.333 68.0104 154.385 68.0104 154.385L71.7187 151.922Z" fill="white"/>
</svg>
